<?xml version="1.0" encoding="utf-8"?>
<!-- Generator: Adobe Illustrator 23.0.1, SVG Export Plug-In . SVG Version: 6.00 Build 0)  -->
<svg version="1.1" id="Layer_1" xmlns="http://www.w3.org/2000/svg" xmlns:xlink="http://www.w3.org/1999/xlink" x="0px" y="0px"
	 viewBox="0 0 1000 1000" style="enable-background:new 0 0 1000 1000;" xml:space="preserve">
<style type="text/css">
	.st0{fill:#FFEBA0;stroke:#FFC03C;stroke-miterlimit:10;}
	.st1{fill:#728BC6;}
	.st2{fill:#FFFFFF;}
	.st3{fill:#FFC873;stroke:#FFC03C;stroke-miterlimit:10;}
	.st4{fill:#FFDF5D;stroke:#FFC03C;stroke-miterlimit:10;}
	.st5{fill:#9295A3;}
	.st6{fill:#B7CEEC;}
	.st7{fill:#5E6EB4;}
	.st8{fill:#A79464;}
	.st9{fill:#EBDCB6;}
	.st10{font-family:'MyriadPro-Regular';}
	.st11{font-size:51.4538px;}
	.st12{fill:#FFC03C;}
	.st13{fill:#FFDF5D;}
	.st14{fill:#FFC03C;stroke:#FFFFFF;stroke-miterlimit:10;}
	.st15{fill:#98B0D9;}
	.st16{fill:#6387C5;}
	.st17{fill:#FFD596;stroke:#FFC03C;stroke-miterlimit:10;}
	.st18{fill:#FFBB4E;stroke:#FFC03C;stroke-miterlimit:10;}
	.st19{fill:#FFE3B9;stroke:#FFC03C;stroke-miterlimit:10;}
	.st20{fill:#FFEBA0;}
	.st21{fill:#8291A4;}
	.st22{fill:#FBE996;}
</style>
<path class="st0" d="M588.02,577.01c14.26-3.54,69.97-20.61,90.19-83.53s19.66-83.48,23.74-95.79c4.08-12.31-42.9,42.24-65.48,56.52
	c-22.58,14.28-47.47,39.94-51.24,65.5c-3.76,25.57-9.09,69.92-9.09,69.92L588.02,577.01z"/>
<g>
	<g>
		<path class="st1" d="M435.85,546.16l-3.26-276.49c-0.17-14.2,12.03-25.84,27.25-26l143.6-1.47c15.22-0.16,27.69,11.23,27.86,25.43
			l3.26,276.49c0.17,14.2-12.03,25.84-27.25,26l-143.6,1.47C448.49,571.75,436.02,560.36,435.85,546.16z"/>
	</g>
	<g>
		<polygon class="st2" points="572.72,570.47 568.85,242.56 604.91,242.19 608.78,570.1 		"/>
	</g>
	<g>
		<polygon class="st2" points="534.22,429.24 532.17,255.31 557.49,255.05 559.54,428.98 		"/>
	</g>
	<g>
		<path class="st2" d="M492.83,302.97l-0.42-35.38c-0.09-7.32,6.2-13.31,14.04-13.39h0c7.84-0.08,14.26,5.78,14.35,13.1l0.42,35.38
			c0.09,7.32-6.2,13.31-14.04,13.39h0C499.35,316.15,492.92,310.29,492.83,302.97z"/>
	</g>
</g>
<path class="st3" d="M434.62,616.75c0,0-25.56-90.1-1.85-134.45c23.71-44.35,60.16-70.61,90.5-99.04
	c30.34-28.42,69.85-46.87,69.85-46.87s20.14,150.32,2.57,187.41c-17.57,37.09-91.75,91.58-114.04,107.78
	c-22.29,16.19-36.43,39.75-39.35,42.12C439.38,676.07,434.62,616.75,434.62,616.75z"/>
<path class="st3" d="M134.92,759.06c0,0-75.22-61.31-82.17-110.45s7.5-89.94,15.59-129.34s29.77-75.33,29.77-75.33
	S204.96,557.99,212.65,597.9c7.69,39.91-21.1,123.82-29.86,148.88s-6.34,51.97-7.35,55.46
	C174.44,805.73,134.92,759.06,134.92,759.06z"/>
<path class="st4" d="M519.99,622.88c-1.23-3.26-14.39-44.14-2.99-84.94s25.83-91.22,64.25-100.47
	c38.42-9.25,58.81,20.23,50.25,65.11s-63.06,110.93-79.51,122.88c-16.44,11.95-22.21,18.2-27.36,13.59
	C519.48,634.44,519.99,622.88,519.99,622.88z"/>
<g>
	<path class="st5" d="M925.45,847.3H374.22c-21.29,0-38.55-17.26-38.55-38.55V556.55c0-21.29,17.26-38.55,38.55-38.55h551.23
		c21.29,0,38.55,17.26,38.55,38.55v252.21C964,830.05,946.74,847.3,925.45,847.3z"/>
	<path class="st6" d="M920.1,524.43H695.32c-20.96,0-37.96,16.99-37.96,37.96v237.95c0,20.96,16.99,37.96,37.96,37.96H920.1
		c20.96,0,37.96-16.99,37.96-37.96V562.39C958.06,541.43,941.06,524.43,920.1,524.43z"/>
	<path class="st6" d="M612.28,524.43H381.95c-20.96,0-37.96,16.99-37.96,37.96v237.95c0,20.96,16.99,37.96,37.96,37.96h230.32
		c20.96,0,37.96-16.99,37.96-37.96V562.39C650.23,541.43,633.24,524.43,612.28,524.43z"/>
	<path class="st7" d="M619.75,564.31H374.09c-16.84,0-30.49,13.65-30.49,30.49v32.5c0,16.84,13.65,30.49,30.49,30.49h245.66
		c16.84,0,30.49-13.65,30.49-30.49v-32.5C650.23,577.96,636.58,564.31,619.75,564.31z"/>
	<g>
		<path class="st3" d="M608.72,741.82H385.11c-15.22,0-27.56-12.34-27.56-27.56V605.59c0-15.22,12.34-27.56,27.56-27.56h223.61
			c15.22,0,27.56,12.34,27.56,27.56v108.68C636.27,729.49,623.94,741.82,608.72,741.82z"/>
		<g>
			<rect x="357.56" y="599.53" class="st2" width="278.72" height="29.72"/>
		</g>
		<g>
			<rect x="368.08" y="638.74" class="st2" width="147.83" height="20.87"/>
		</g>
		<g>
			<path class="st2" d="M411.06,692.5h-35.72c-4.66,0-8.44-3.78-8.44-8.44v-6.53c0-4.66,3.78-8.44,8.44-8.44h35.72
				c4.66,0,8.44,3.78,8.44,8.44v6.53C419.49,688.72,415.72,692.5,411.06,692.5z"/>
		</g>
	</g>
	<path class="st7" d="M619.75,646.63H374.09c-16.84,0-30.49,13.65-30.49,30.49v52.22c0,16.84,13.65,30.49,30.49,30.49h245.66
		c16.84,0,30.49-13.65,30.49-30.49v-52.22C650.23,660.28,636.58,646.63,619.75,646.63z"/>
	<g>
		<g>
			<path class="st1" d="M608.72,834.44H385.11c-15.22,0-27.56-12.34-27.56-27.56V698.2c0-15.22,12.34-27.56,27.56-27.56h223.61
				c15.22,0,27.56,12.34,27.56,27.56v108.68C636.27,822.1,623.94,834.44,608.72,834.44z"/>
		</g>
		<g>
			<rect x="357.56" y="692.15" class="st2" width="278.72" height="29.72"/>
		</g>
		<g>
			<rect x="368.08" y="731.36" class="st2" width="147.83" height="20.87"/>
		</g>
		<g>
			<path class="st2" d="M411.06,785.11h-35.72c-4.66,0-8.44-3.78-8.44-8.44v-6.53c0-4.66,3.78-8.44,8.44-8.44h35.72
				c4.66,0,8.44,3.78,8.44,8.44v6.53C419.49,781.34,415.72,785.11,411.06,785.11z"/>
		</g>
	</g>
	<path class="st7" d="M619.75,746.97H374.09c-16.84,0-30.49,13.65-30.49,30.49v32.5c0,16.84,13.65,30.49,30.49,30.49h245.66
		c16.84,0,30.49-13.65,30.49-30.49v-32.5C650.23,760.62,636.58,746.97,619.75,746.97z"/>
	<g>
		<g>
			<rect x="665.68" y="535.58" class="st8" width="284.45" height="162.94"/>
			<path class="st9" d="M936.27,572.45v86.63c-12.99,0.15-23.49,10.84-23.49,24c0,0.87,0.04,1.73,0.14,2.57H703.75
				c0.09-0.84,0.14-1.71,0.14-2.57c0-13.26-10.65-24.01-23.78-24.01c-0.19,0-0.37,0-0.56,0.02v-90.08c0.19,0.02,0.37,0.02,0.56,0.02
				c11.97,0,21.88-8.94,23.53-20.58h209.14C912.78,561.61,923.28,572.29,936.27,572.45z"/>
			<text transform="matrix(0.9595 0 0 1 700.1807 589.1152)" class="st8 st10 st11">$</text>
			<text transform="matrix(0.9595 0 0 1 889.5488 589.1152)" class="st8 st10 st11">$</text>
		</g>
		<g>
			<rect x="665.68" y="587.03" class="st8" width="284.45" height="162.94"/>
			<path class="st9" d="M936.27,623.9v86.63c-12.99,0.15-23.49,10.84-23.49,24c0,0.87,0.04,1.73,0.14,2.57H703.75
				c0.09-0.84,0.14-1.71,0.14-2.57c0-13.26-10.65-24.01-23.78-24.01c-0.19,0-0.37,0-0.56,0.02v-90.08c0.19,0.02,0.37,0.02,0.56,0.02
				c11.97,0,21.88-8.94,23.53-20.58h209.14C912.78,613.06,923.28,623.75,936.27,623.9z"/>
			<text transform="matrix(0.9595 0 0 1 700.1807 640.5703)" class="st8 st10 st11">$</text>
			<text transform="matrix(0.9595 0 0 1 889.5488 640.5703)" class="st8 st10 st11">$</text>
		</g>
		<g>
			<rect x="665.68" y="605.04" class="st8" width="284.45" height="162.94"/>
			<path class="st9" d="M936.27,641.91v86.63c-12.99,0.15-23.49,10.84-23.49,24c0,0.87,0.04,1.73,0.14,2.57H703.75
				c0.09-0.84,0.14-1.71,0.14-2.57c0-13.26-10.65-24.01-23.78-24.01c-0.19,0-0.37,0-0.56,0.02v-90.08c0.19,0.02,0.37,0.02,0.56,0.02
				c11.97,0,21.88-8.94,23.53-20.58h209.14C912.78,631.07,923.28,641.76,936.27,641.91z"/>
			<text transform="matrix(0.9595 0 0 1 700.1807 658.5791)" class="st8 st10 st11">$</text>
			<text transform="matrix(0.9595 0 0 1 889.5488 658.5791)" class="st8 st10 st11">$</text>
		</g>
	</g>
	<path class="st1" d="M919.25,636.34H696.57c-16.84,0-30.49,13.65-30.49,30.49v137.12c0,16.84,13.65,30.49,30.49,30.49h222.68
		c16.84,0,30.49-13.65,30.49-30.49V666.83C949.74,649.99,936.09,636.34,919.25,636.34z"/>
</g>
<path class="st12" d="M480.54,813.39H190.54c-16.37,0-29.64-13.27-29.64-29.64v-583.1c0-16.37,13.27-29.64,29.64-29.64h289.99
	c16.37,0,29.64,13.27,29.64,29.64v583.1C510.18,800.12,496.91,813.39,480.54,813.39z"/>
<path class="st2" d="M464.73,798.69H206.35c-16.37,0-29.64-13.27-29.64-29.64v-553.7c0-16.37,13.27-29.64,29.64-29.64h258.38
	c16.37,0,29.64,13.27,29.64,29.64v553.7C494.37,785.42,481.1,798.69,464.73,798.69z"/>
<path class="st8" d="M291.57,330.02c0,0,34.25,6.36,41.79,37.52c7.54,31.16,24.66,42.61,24.66,53.42s-4.8,24.16-17.81,23.53
	c-13.02-0.64-46.58-1.91-54.12,0c-7.54,1.91-17.13,0.64-21.92-3.18c-4.8-3.82-4.8-15.9,0-26.07c4.8-10.17-4.11-17.17-3.43-24.16
	c0.69-6.99-0.69-25.44,6.17-31.8c6.85-6.36,3.43-22.89,10.28-26.07C284.03,330.02,291.57,330.02,291.57,330.02z"/>
<polygon class="st13" points="193.96,620.1 105.84,765.07 80.36,765.07 154.91,602.42 202.69,602.42 "/>
<path class="st12" d="M358.06,577.13c0,0,0-23.37-3.43-42.18c-3.43-18.81-32.88-102.6-34.94-111.15
	c-2.06-8.55-14.39-20.52-24.66-15.39c-10.28,5.13-37.68,74.67-48.64,100.89c-10.96,26.22-15.83,60.81-15.83,60.81
	s46.05-2.86,74.78,1.79C334.09,576.56,358.06,577.13,358.06,577.13z"/>
<path class="st14" d="M314.17,420.95c0,0,26.72,45.15,36.31,67.41c9.59,22.26-65.08,61.68-89.05,70.59s-32.88,10.17-32.88,10.17
	s-4.8-10.81-7.54-13.35s39.05-44.51,54.8-54.05c15.76-9.54,23.98-15.26,21.92-31.8c-2.06-16.53-6.85-40.06-3.43-45.15
	c3.43-5.09,9.59-10.17,13.02-9.54C310.75,415.86,314.17,420.95,314.17,420.95z"/>
<path class="st15" d="M128.08,593.47l2.1-0.55c2-0.52,3.17-2.46,2.6-4.32L107.38,505c-0.56-1.86-2.65-2.94-4.65-2.42l-2.1,0.55
	c-2,0.52-3.17,2.46-2.6,4.32l25.41,83.6C124,592.92,126.08,594,128.08,593.47z"/>
<path class="st16" d="M225.23,564.47l-0.59-2.09c-0.56-1.99-2.65-3.15-4.65-2.59l-90.06,25.27c-2,0.56-3.17,2.63-2.6,4.62l0.59,2.09
	c0.56,1.99,2.65,3.15,4.65,2.59l90.06-25.27C224.63,568.53,225.8,566.46,225.23,564.47z"/>
<path class="st2" d="M275.81,366.9l13.7,35.61l18.5-3.82l3.43-24.16c0,0,10.28-15.26,4.8-15.26s-8.22,0-8.22,0l-6.85-13.35h-25.35
	l-4.11,13.35L275.81,366.9z"/>
<path class="st8" d="M224.43,555.15c0,0-12,3.71-17.78,1.46c-5.78-2.26-19.6,0.5-23.68,6.83s-6.4,16.65,1.01,12.84
	c7.41-3.81,10.23-7.72,13.87-5.81c3.64,1.91,29.46-4.57,29.46-4.57L224.43,555.15z"/>
<g>
	
		<rect x="318.07" y="607.11" transform="matrix(-1 -1.224647e-16 1.224647e-16 -1 681.9952 1249.7782)" class="st17" width="45.86" height="35.57"/>
	
		<rect x="272.85" y="607.11" transform="matrix(-1 -1.224647e-16 1.224647e-16 -1 591.559 1249.7782)" class="st3" width="45.86" height="35.57"/>
	
		<rect x="227.63" y="607.11" transform="matrix(-1 -1.224647e-16 1.224647e-16 -1 501.1227 1249.7782)" class="st18" width="45.86" height="35.57"/>
	
		<rect x="183.7" y="607.11" transform="matrix(-1 -1.224647e-16 1.224647e-16 -1 413.2704 1249.7782)" class="st18" width="45.86" height="35.57"/>
	
		<rect x="363.93" y="607.11" transform="matrix(-1 -1.224647e-16 1.224647e-16 -1 773.7234 1249.7782)" class="st19" width="45.86" height="35.57"/>
</g>
<g>
	
		<rect x="325.07" y="642.64" transform="matrix(-1 -1.224647e-16 1.224647e-16 -1 695.9952 1320.8549)" class="st17" width="45.86" height="35.57"/>
	
		<rect x="279.85" y="642.64" transform="matrix(-1 -1.224647e-16 1.224647e-16 -1 605.559 1320.8549)" class="st3" width="45.86" height="35.57"/>
	
		<rect x="234.63" y="642.64" transform="matrix(-1 -1.224647e-16 1.224647e-16 -1 515.1227 1320.8549)" class="st18" width="45.86" height="35.57"/>
	
		<rect x="190.7" y="642.64" transform="matrix(-1 -1.224647e-16 1.224647e-16 -1 427.2704 1320.8549)" class="st18" width="45.86" height="35.57"/>
	
		<rect x="370.93" y="642.64" transform="matrix(-1 -1.224647e-16 1.224647e-16 -1 787.7234 1320.8549)" class="st19" width="45.86" height="35.57"/>
</g>
<g>
	
		<rect x="339.07" y="674.64" transform="matrix(-1 -1.224647e-16 1.224647e-16 -1 723.9952 1384.8403)" class="st17" width="45.86" height="35.57"/>
	
		<rect x="293.85" y="674.64" transform="matrix(-1 -1.224647e-16 1.224647e-16 -1 633.559 1384.8403)" class="st3" width="45.86" height="35.57"/>
	
		<rect x="248.63" y="674.64" transform="matrix(-1 -1.224647e-16 1.224647e-16 -1 543.1227 1384.8403)" class="st18" width="45.86" height="35.57"/>
	
		<rect x="204.7" y="674.64" transform="matrix(-1 -1.224647e-16 1.224647e-16 -1 455.2704 1384.8403)" class="st18" width="45.86" height="35.57"/>
	
		<rect x="384.93" y="674.64" transform="matrix(-1 -1.224647e-16 1.224647e-16 -1 815.7234 1384.8403)" class="st19" width="45.86" height="35.57"/>
</g>
<g>
	
		<rect x="324.07" y="711.4" transform="matrix(-1 -1.224647e-16 1.224647e-16 -1 693.9952 1458.3579)" class="st17" width="45.86" height="35.57"/>
	
		<rect x="278.85" y="711.4" transform="matrix(-1 -1.224647e-16 1.224647e-16 -1 603.559 1458.3579)" class="st3" width="45.86" height="35.57"/>
	
		<rect x="233.63" y="711.4" transform="matrix(-1 -1.224647e-16 1.224647e-16 -1 513.1227 1458.3579)" class="st18" width="45.86" height="35.57"/>
	
		<rect x="189.7" y="711.4" transform="matrix(-1 -1.224647e-16 1.224647e-16 -1 425.2704 1458.3579)" class="st18" width="45.86" height="35.57"/>
	
		<rect x="369.93" y="711.4" transform="matrix(-1 -1.224647e-16 1.224647e-16 -1 785.7234 1458.3579)" class="st19" width="45.86" height="35.57"/>
</g>
<g>
	
		<rect x="325.07" y="779.52" transform="matrix(-1 -1.224647e-16 1.224647e-16 -1 695.9952 1594.6108)" class="st17" width="45.86" height="35.57"/>
	
		<rect x="279.85" y="779.52" transform="matrix(-1 -1.224647e-16 1.224647e-16 -1 605.559 1594.6108)" class="st3" width="45.86" height="35.57"/>
	
		<rect x="234.63" y="779.52" transform="matrix(-1 -1.224647e-16 1.224647e-16 -1 515.1227 1594.6108)" class="st18" width="45.86" height="35.57"/>
	
		<rect x="190.7" y="779.52" transform="matrix(-1 -1.224647e-16 1.224647e-16 -1 427.2704 1594.6108)" class="st18" width="45.86" height="35.57"/>
	
		<rect x="370.93" y="779.52" transform="matrix(-1 -1.224647e-16 1.224647e-16 -1 787.7234 1594.6108)" class="st19" width="45.86" height="35.57"/>
</g>
<g>
	
		<rect x="331.07" y="747.31" transform="matrix(-1 -1.224647e-16 1.224647e-16 -1 707.9952 1530.1799)" class="st17" width="45.86" height="35.57"/>
	
		<rect x="285.85" y="747.31" transform="matrix(-1 -1.224647e-16 1.224647e-16 -1 617.559 1530.1799)" class="st3" width="45.86" height="35.57"/>
	
		<rect x="240.63" y="747.31" transform="matrix(-1 -1.224647e-16 1.224647e-16 -1 527.1227 1530.1799)" class="st18" width="45.86" height="35.57"/>
	
		<rect x="196.7" y="747.31" transform="matrix(-1 -1.224647e-16 1.224647e-16 -1 439.2704 1530.1799)" class="st18" width="45.86" height="35.57"/>
	
		<rect x="376.93" y="747.31" transform="matrix(-1 -1.224647e-16 1.224647e-16 -1 799.7234 1530.1799)" class="st19" width="45.86" height="35.57"/>
</g>
<path class="st20" d="M579.79,519h-70.73c-26.58-31.35-66.31-84.28-68.91-120.04c-3.39-46.68,9.04-159.81,9.04-159.81
	s12.43,4.75,23.73,28.48c11.3,23.74,58.76,79.91,88.14,134.49C578.59,434.69,580.83,484.28,579.79,519z"/>
<g>
	
		<rect x="338.07" y="813.43" transform="matrix(-1 -1.224647e-16 1.224647e-16 -1 721.9952 1662.4329)" class="st17" width="45.86" height="35.57"/>
	
		<rect x="292.85" y="813.43" transform="matrix(-1 -1.224647e-16 1.224647e-16 -1 631.559 1662.4329)" class="st3" width="45.86" height="35.57"/>
	
		<rect x="247.63" y="813.43" transform="matrix(-1 -1.224647e-16 1.224647e-16 -1 541.1227 1662.4329)" class="st18" width="45.86" height="35.57"/>
	
		<rect x="203.7" y="813.43" transform="matrix(-1 -1.224647e-16 1.224647e-16 -1 453.2704 1662.4329)" class="st18" width="45.86" height="35.57"/>
	
		<rect x="383.93" y="813.43" transform="matrix(-1 -1.224647e-16 1.224647e-16 -1 813.7234 1662.4329)" class="st19" width="45.86" height="35.57"/>
</g>
<path class="st21" d="M434.33,213.72H312.08c-3.92,0-7.12-3.2-7.12-7.12v0c0-3.92,3.2-7.12,7.12-7.12h122.25
	c3.92,0,7.12,3.2,7.12,7.12v0C441.45,210.52,438.24,213.72,434.33,213.72z"/>
<polygon class="st18" points="100,773 80,773 38,802 100,802 "/>
<polygon class="st18" points="214.5,787.5 194.5,787.5 152.5,816.5 214.5,816.5 "/>
<path class="st22" d="M355.07,573.04c0,0-14.04,33.25-54.16,42.44s-125.7,0-125.7,0s22.73,45.27,26.75,85.6
	c4.01,40.32,5.35,79.94,5.35,79.94l-22.07,16.27c0,0-41.46-154.92-46.8-168.36c-5.35-13.44-9.36-33.25-3.34-38.91
	c6.02-5.66,57.5-20.51,98.96-26.17c41.46-5.66,125.7,7.78,125.7,7.78L355.07,573.04z"/>
</svg>
