<?xml version="1.0" encoding="utf-8"?>
<!-- Generator: Adobe Illustrator 23.0.1, SVG Export Plug-In . SVG Version: 6.00 Build 0)  -->
<svg version="1.1" id="Layer_1" xmlns="http://www.w3.org/2000/svg" xmlns:xlink="http://www.w3.org/1999/xlink" x="0px" y="0px"
	 viewBox="0 0 1000 1000" style="enable-background:new 0 0 1000 1000;" xml:space="preserve">
<style type="text/css">
	.st0{opacity:0.69;fill:#FDF2C0;}
	.st1{opacity:0.78;fill:#FFD05C;}
	.st2{fill:#FFFFFF;}
	.st3{fill:#6E80F0;stroke:#FFFFFF;stroke-miterlimit:10;}
	.st4{fill:#7883AE;}
	.st5{fill:#DEB085;}
	.st6{fill:#FFFFFF;stroke:#FFFFFF;stroke-miterlimit:10;}
	.st7{opacity:0.55;fill:#FFD05C;}
	.st8{fill:#6E80F0;}
	.st9{fill:#728BC6;}
	.st10{fill:#CCDBE3;}
	.st11{fill:#E7E3FD;}
	.st12{fill:#FFEBA0;}
	.st13{fill:#C6CDF1;}
	.st14{fill:#FFC03C;}
</style>
<path class="st0" d="M284.85,818.82c0,0-78.85-47.78-87.53-91.75c-8.69-43.97,45.29-133.09,45.29-133.09s89.97,65.94,105.48,103.31
	s-66.46,127.75-66.46,127.75L284.85,818.82z"/>
<path class="st1" d="M252.89,786.96c0,0,0.58-1.71,1.49-4.83c5.24-17.94,21.49-82.65,2.58-139.41
	c-22.2-66.65-21.42-64.31-21.42-64.31s-11.44,90.84-12.6,87.33c-1.17-3.51-14.06-3.11-12.47-33.52
	c1.6-30.41,16.85-78.77,16.85-78.77l-12.42-37.01l-15.32,67.45l-14.43-27.67l5.14-54.97l-62.84-67.4c0,0-60.7,118.94-60.74,146.22
	c-0.03,27.29,43.71,49.09,54.25,53.37c10.55,4.28-17.23,30.42-28.95,26.53s-25.39-5.83-17.6,17.55
	c7.79,23.38,32.74,70.93,78.06,81.81S252.89,786.96,252.89,786.96z"/>
<g>
	<path class="st1" d="M264.3,842.26c0,0-118.3-36.98-139.99-101.01s-6.51-220.86-6.51-220.86s124.04,71.52,161.84,129.34
		s26.98,111.9,16.4,156.77c-10.58,44.87-10.58,44.87-10.58,44.87L264.3,842.26z"/>
	<path class="st2" d="M285.44,851.37c2.2-9.6-36.12-38.79-72.42-125.43s-51.6-133.58-60.92-155.19
		c-9.32-21.61-31.12-60.14-31.12-60.14"/>
	<path class="st2" d="M254.34,786.13c0,0,2.48-29.01,9.41-45.66s37.37-42.78,37.37-42.78"/>
	<path class="st2" d="M234.31,746.23c0,0,10.5-24.47,22.72-40.11c12.23-15.64,36.53-30.52,36.53-30.52"/>
	<path class="st2" d="M279.63,649.74c0,0-10.82,7.21-28.55,25.96c-17.73,18.75-30.19,43.61-30.19,43.61s-41.92-11.16-59.42-1.63
		c-17.49,9.54-38.72,20.82-38.72,20.82"/>
	<path class="st2" d="M204.96,684.72c0,0,6.17-20.57,22.7-35.01s41.6-14.81,38.79-17.04"/>
	<path class="st2" d="M186.68,648.56c0,0,2.99-10.77,15.98-22.49c12.99-11.71,35.76-15.15,35.76-15.15"/>
	<path class="st2" d="M256.63,797.83c0,0-10.16-5.07-21.53-5.9s-44.94,16.78-42.42,18.41"/>
	<path class="st2" d="M237.51,776.41c0,0-30.95-5.39-41.37-1.31c-10.41,4.07-32.58,15.78-32.58,15.78"/>
	<path class="st2" d="M218.74,739.09c0,0-54.81,1.55-62.9,12.3s-15.49,17.39-15.49,17.39"/>
</g>
<path class="st3" d="M739.5,652.5c0,0,7,88-28,142s-105,64-147,95s-95,45-162,13s-132-104-174-157s-76-138-61-187c0,0,22-69,55-104
	s78-55,138-49s150,26,211,24s85,43,110,78s43,84,48,104S739.5,647.5,739.5,652.5z"/>
<path class="st4" d="M714.44,864.86l-78.74-30.82c0,0,101.65-152.79,112.48-149.75s87.91,35.89,87.91,35.89
	S714.64,864.61,714.44,864.86z"/>
<path class="st5" d="M620.87,685.23c0,0,8.58,14.61,19.37,24.47s42.17,10.84,61.78,16.76c19.61,5.91,37.27,11.83,46.09,10.84
	s7.85,22.67,7.85,32.53s-6.86,18.73-10.79,8.87s-10.79-29.57-18.63-30.56c-7.85-0.99-84.34-5.91-97.09-15.77
	s-21.58-24.64-35.31-34.5c-13.73-9.86-17.65-27.6-17.65-27.6l14.71-15.77L620.87,685.23z"/>
<path class="st6" d="M165.45,517.78c0,0,7.26,55.18,36.97,100.77s124.13,68.98,142.62,71.98s42.92,3,42.92,3s11.88-13.2,26.41-28.79
	c14.53-15.6,15.85-18.59,15.85-18.59s-14.53-36.59-43.58-58.78s-118.85-52.18-130.73-61.18c-11.88-9-62.73-42.59-67.35-49.19
	S171.39,447,171.39,447l-14.53,4.8c0,0,30.37,53.38,54.8,74.98c24.43,21.59,12.55,11.4,12.55,11.4s-31.69-26.99-41.6-35.99
	c-9.9-9-31.69-47.39-31.69-47.39s-7.92,3.6-7.92,6s7.26,23.39,13.87,35.99S165.45,517.78,165.45,517.78z"/>
<path class="st3" d="M430.22,646.14c0,0,39.62-25.79,66.03-29.99c26.41-4.2,64.05-4.8,77.25,3.6c13.21,8.4,23.11,19.79,13.87,35.99
	c-9.24,16.2-13.21,19.19-7.92,31.79c5.28,12.6,5.94,24.59-5.28,35.99c-11.22,11.4-52.82,19.19-71.97,12.6s-56.12-25.19-74.61-30.59
	c-18.49-5.4-39.62-12-39.62-12s-5.28-19.79,9.24-32.39C411.73,648.54,430.22,646.14,430.22,646.14z"/>
<path class="st5" d="M583.19,652.8c0,0,9.62-12.31,13.4-19.43c3.78-7.12,18.18,5.43,18.78,24.42c0.6,18.99-15.21,25.49-24.98,32.8
	c-9.78,7.31-17.38,0.57-17.38,0.57s-4.39-24.9-0.49-28.02S583.19,652.8,583.19,652.8z"/>
<path class="st5" d="M553.7,721.48c0,0,23.8,41.02,36.8,55.02s50-27,69-47s24-23,34-22s17,6,28,15s17,7,17,7s-4,16-16,14
	s-13-13-26-14s-13,0-13,0s-44,58-62,72s-42,10-54,0s-23-25-41-51s-23-43-23-43s28-15,36-12S553.7,721.48,553.7,721.48z"/>
<path class="st2" d="M618.38,571.02c0,0,2.12,14.48-6.88,25.48s-6,14-15,35s-19,51-35,62s-42,40-33,85s3,44-26,64s-89-11-108-23
	s-42-62-32-81s53.43-20.92,64.72-28.46c11.28-7.54,13.28-30.54,15.28-56.54s31-44,43-45s43-6,64-10s46.63-19.14,46.63-19.14
	S618.25,570.54,618.38,571.02z"/>
<path class="st5" d="M581.6,595.37c-0.01,4,8.81,58.03,8.81,58.03s20.95,17.07,30.93,23.1c9.98,6.03,21,0.07,21,0.07l19.13-38.94
	c0,0-6.84-50.02-9.83-54.03c-2.99-4.01-31.95-14.1-38.96-12.13C605.67,573.45,581.6,595.37,581.6,595.37z"/>
<path class="st2" d="M612.5,570c0,0,3.01,19.1,23.09,24.12c20.08,5.03,21.09,9.88,21.09,9.88s4.01-34-16.07-34
	C620.53,570,612.5,570,612.5,570z"/>
<path class="st2" d="M611.5,596.5c-9,11-6,14-15,35s-19,51-35,62c-10.66,7.32-25.75,22.63-31.98,45.33
	c-3.13,11.39-4.03,24.64-1.02,39.67c0.91,4.57,1.67,8.67,2.27,12.36c-2.01,2.99-4.52,5.54-7.03,7.34c-6.08,4.37-14.19-6.56-28.38,0
	c-14.2,6.56-46.63,5.47-70.96-16.4c-24.33-21.86-22.3-42.63-20.28-54.66c0.67-3.97,3.99-8.05,8.14-11.75
	c6.48-1.67,11.9-3.31,14.96-5.35c2.64-1.76,4.76-4.37,6.5-7.66c5.71-10.79,7.25-28.96,8.78-48.88c2-26,31-44,43-45s43-6,64-10
	s46.63-19.14,46.63-19.14s22.12-8.82,22.25-8.34C618.38,571.02,620.5,585.5,611.5,596.5z"/>
<path class="st7" d="M36,0c0,0-33,297,127,442s296,80,418,71s176-17,253,39s-7,209-68,259s-28,27-28,27s163-20,219-159
	s43-133,43-133l1-546H36z"/>
<path class="st8" d="M297.16,468.77h-139.9c-34.66,0-62.76-28.1-62.76-62.76v-133.3c0-34.66,28.1-62.76,62.76-62.76h139.9
	c34.66,0,62.76,28.1,62.76,62.76v133.3C359.92,440.67,331.82,468.77,297.16,468.77z"/>
<path class="st8" d="M576.98,471.54h-139.9c-34.66,0-62.76-28.1-62.76-62.76v-133.3c0-34.66,28.1-62.76,62.76-62.76h139.9
	c34.66,0,62.76,28.1,62.76,62.76v133.3C639.74,443.44,611.64,471.54,576.98,471.54z"/>
<path class="st8" d="M855.24,471.54h-139.9c-34.66,0-62.76-28.1-62.76-62.76v-133.3c0-34.66,28.1-62.76,62.76-62.76h139.9
	c34.66,0,62.76,28.1,62.76,62.76v133.3C918,443.44,889.9,471.54,855.24,471.54z"/>
<path class="st9" d="M939,86H83c-9.94,0-18-8.06-18-18v0c0-9.94,8.06-18,18-18h856c9.94,0,18,8.06,18,18v0
	C957,77.94,948.94,86,939,86z"/>
<path class="st2" d="M440,80H100c-6.63,0-12-5.37-12-12v0c0-6.63,5.37-12,12-12h340c6.63,0,12,5.37,12,12v0
	C452,74.63,446.63,80,440,80z"/>
<path class="st2" d="M157.78,364.44c0,0-6.62-35.73-7.94-55.65c-1.32-19.92,19.85-45.69,31.1-52.72
	c11.25-7.03,24.49,7.62,33.09,20.5s15.22,31.63,13.9,39.25c-1.32,7.62-7.94,49.79-7.94,49.79L157.78,364.44z"/>
<path class="st2" d="M158.1,363.31c0,0-4.78,42.5,20.31,51.58s40.43-10.68,41.21-30.41c0.78-19.73-0.03-18.97-0.03-18.97
	L158.1,363.31z"/>
<path class="st2" d="M163.67,362.15c0,0-3.89,32.81,16.64,39.8c20.53,6.99,33.07-8.26,33.69-23.5c0.62-15.23-0.04-14.64-0.04-14.64
	L163.67,362.15z"/>
<path class="st2" d="M163.07,362.1c0,0-4.63-50.96-5.29-55.06s17.21-33.39,22.5-36.9c5.29-3.51,8.6-3.51,8.6-3.51
	s29.78,33.98,31.1,43.35c1.32,9.37-5.96,53.89-5.96,53.89s0.66,19.92-11.25,27.53c-11.91,7.62-17.87,6.44-31.1-1.17
	C158.44,382.6,163.07,362.1,163.07,362.1z"/>
<path class="st2" d="M239.17,364.44c0,0-6.62-35.73-7.94-55.65c-1.32-19.92,19.85-45.69,31.1-52.72
	c11.25-7.03,24.49,7.62,33.09,20.5s15.22,31.63,13.9,39.25c-1.32,7.62-7.94,49.79-7.94,49.79L239.17,364.44z"/>
<path class="st2" d="M239.49,363.31c0,0-4.78,42.5,20.31,51.58c25.09,9.07,40.43-10.68,41.21-30.41s-0.03-18.97-0.03-18.97
	L239.49,363.31z"/>
<path class="st2" d="M245.06,362.15c0,0-3.89,32.81,16.64,39.8c20.53,6.99,33.07-8.26,33.69-23.5c0.62-15.23-0.04-14.64-0.04-14.64
	L245.06,362.15z"/>
<path class="st2" d="M244.47,362.1c0,0-4.63-50.96-5.29-55.06s17.21-33.39,22.5-36.9c5.29-3.51,8.6-3.51,8.6-3.51
	s29.78,33.98,31.1,43.35c1.32,9.37-5.96,53.89-5.96,53.89s0.66,19.92-11.25,27.53c-11.91,7.62-17.87,6.44-31.1-1.17
	C239.83,382.6,244.47,362.1,244.47,362.1z"/>
<g>
	<path class="st2" d="M565.71,261.16c0,0,22.37,28.26,28.28,55.13c5.91,26.87,5.91,27.91,5.91,27.91s-11.4,4.54-19.42,4.19
		c-8.02-0.35-11.89-0.17-11.89-0.17l0.07-43.44c0,0-5.49-3.84-5.07-20.59C564.02,267.44,565.71,261.16,565.71,261.16z"/>
	<g>
		<path class="st2" d="M570.29,313.77c0-0.88-3.8-12.71-5.49-27.18c-0.96-8.21,0.12-17.26,1.24-23.56
			c-8.43-3.85-16.99-7.67-26.14-9.11c-0.54-0.08-0.92-0.33-1.17-0.65h-0.73c-1.01,13.11-11.38,23.41-24.03,23.41
			s-23.02-10.3-24.03-23.41h-2.58c-4.19,0.31-8.38,1.35-12.28,2.66c-6.12,2.06-12.33,5.13-16.91,9.93
			c0.52,4.05,0.97,8.86,1.12,14.15c0.42,15.34-8.02,33.32-8.02,33.76c0,0.34-2.61,11-6.19,32.16c0.45,0.15,0.86,0.45,1.15,0.88
			c0.19-0.07,0.38-0.11,0.58-0.12c-0.04-0.26-0.07-0.52-0.11-0.78c-0.22-1.53,0.92-2.57,2.06-2.73c0.12-0.15,0.25-0.28,0.4-0.39
			c0-0.03,0-0.06,0-0.09c0.01-2.83,4.23-2.82,4.22,0c-0.01,2.64-0.09,5.29-0.2,7.94c0.57,7.7,0.37,15.43,0.26,23.16
			c0.02,0.49,0.04,0.97,0.06,1.46c1.02,4.04,0.55,8.34,0.17,12.56c-0.03,3.66-0.12,7.33-0.29,10.99c-0.03,0.68-0.35,1.22-0.8,1.59
			c-0.04,1.13-0.09,2.26-0.14,3.4c-0.01,2.99,0.01,5.97,0.11,8.96c0.18,1.71,0.68,5.25,0.49,8.41c0.06,0.71,0.13,1.42,0.21,2.12
			c5.18,0.75,12.18,1.76,21.66,3.14c36.3,5.26,94.55-1.75,94.55-1.75s0,0,0.84-16.66C571.13,391.37,570.29,314.65,570.29,313.77z"/>
		<path class="st2" d="M540.13,251.68c-0.62-0.07-1.23-0.18-1.85-0.32c-0.03,0-0.05,0-0.08,0.01c-0.07,0.01-0.14,0-0.2,0
			c0,0.05-0.01,0.1-0.01,0.14c-1.01,13.11-11.38,23.41-24.03,23.41s-23.02-10.3-24.03-23.41c-0.01-0.14-0.03-0.29-0.03-0.44h-4.38
			c-0.02,0.01-0.04,0.02-0.06,0.03c0,0.14,0.01,0.27,0.02,0.41c0.7,15.59,13.09,27.99,28.26,27.99c15.02,0,27.31-12.16,28.23-27.53
			C541.35,251.88,540.74,251.79,540.13,251.68z"/>
		<path class="st2" d="M459.63,263.35c0,0-22.37,27.55-28.28,53.74s-5.91,27.21-5.91,27.21s11.4,4.42,19.42,4.08
			c8.02-0.34,11.89-0.17,11.89-0.17l-0.07-42.35c0,0,5.49-3.74,5.07-20.07S459.63,263.35,459.63,263.35z"/>
	</g>
</g>
<path class="st2" d="M827.18,302.55c-9.89,4.95-24.74,8.09-41.35,8.09c-16.22,0-30.77-3-40.65-7.75c0.03-0.23,0.05-0.46,0.07-0.69
	c0.1-0.86,0.18-1.71,0.26-2.57c0.78-2.87,1.45-5.94,1.97-9.14c1.11-6.79,1.42-13.22,1.04-18.69c4.73-1.9,10.29-3.44,16.43-4.53
	c1.55-0.27,3.14-0.51,4.76-0.73c0.27,9.49,7.48,17.09,16.34,17.09c8.84,0,16.04-7.57,16.34-17.03c1.62,0.22,3.21,0.47,4.76,0.75
	c6.04,1.09,11.51,2.63,16.17,4.52c-0.37,5.45-0.05,11.86,1.05,18.61C825.07,294.79,826.03,298.86,827.18,302.55
	C827.18,302.55,827.18,302.55,827.18,302.55z"/>
<g>
	<path class="st10" d="M787.04,287.99c-11.37,0-20.62-8.86-20.62-19.76c0-0.18,0-0.35,0.01-0.53c1.25-0.21,2.52-0.41,3.79-0.58
		c0.54,9.59,7.83,17.02,16.82,17.02c8.96,0,16.25-7.41,16.82-16.96c1.24,0.17,2.51,0.37,3.8,0.6c0,0.15,0,0.3,0,0.45
		C807.67,279.12,798.42,287.99,787.04,287.99z"/>
	<path class="st11" d="M769.76,267.68c0.79,9.59,8.19,16.95,17.28,16.95c9.05,0,16.45-7.33,17.28-16.89
		c0.94,0.14,1.89,0.29,2.84,0.45c0,0.01,0,0.02,0,0.03c0,10.62-9.03,19.26-20.12,19.26c-11.09,0-20.12-8.64-20.12-19.26
		c0-0.04,0-0.07,0-0.1C767.86,267.96,768.81,267.82,769.76,267.68 M770.7,266.55c-1.62,0.21-3.21,0.46-4.76,0.73
		c-0.01,0.32-0.02,0.63-0.02,0.95c0,11.19,9.46,20.26,21.12,20.26s21.12-9.07,21.12-20.26c0-0.29,0-0.58-0.02-0.87
		c-1.55-0.28-3.13-0.53-4.76-0.75c-0.3,9.46-7.51,17.03-16.34,17.03C778.19,283.63,770.98,276.04,770.7,266.55L770.7,266.55z"/>
</g>
<path class="st2" d="M853.87,417.23c-21.12,5.59-44.64,8.56-69.4,8.25c-24.86-0.32-48.39-3.93-69.42-10.1
	c7.43-15.07,16.48-44.89,23.62-79.79c0.99-4.81,1.9-9.55,2.74-14.18c1.57-6.33,2.75-12.69,3.54-19.03
	c9.82,4.88,24.33,8.07,40.55,8.27c16.61,0.21,31.5-2.74,41.45-7.56c0,0,0,0,0-0.01c0.02,0,0.04,0.01,0.05,0.02l0,0
	c0.51,5.2,1.27,10.42,2.3,15.63c0,0.01,0,0.01,0,0.02c0.87,5.86,1.85,11.88,2.95,18.03C838.53,371.91,846.82,402,853.87,417.23z"/>
<g>
	<g>
		<path class="st12" d="M837.1,908.86c1.93,0,1.93-3,0-3C835.17,905.86,835.16,908.86,837.1,908.86L837.1,908.86z"/>
	</g>
</g>
<polygon class="st13" points="829.13,624.77 706.94,776.02 713.75,872.19 843.4,730.77 "/>
<path class="st14" d="M925.82,196H96.18C78.96,196,65,182.04,65,164.82v-40.64C65,106.96,78.96,93,96.18,93h829.64
	c17.22,0,31.18,13.96,31.18,31.18v40.64C957,182.04,943.04,196,925.82,196z"/>
<path class="st1" d="M831.2,863.56c0,0-0.57-1.52-1.53-4.35c-5.51-16.23-23.84-75.38-20.76-134.98c3.61-69.98,3.49-67.53,3.49-67.53
	s19.17,85.68,19.36,82c0.19-3.68,7.7-6.3,2.57-35.5c-5.13-29.2-20.63-72.69-20.63-72.69l2.06-38.89l18.18,62.04l4.51-30.27
	l-10.57-52.26l26.99-80.17c0,0,51.52,101.55,55.31,128.08c3.79,26.53-18.47,57.91-23.97,64.53s14.16,25.57,20.39,19.06
	s13.87-11.58,12.6,12.98c-1.27,24.55-9.12,76.6-33.8,97.73S831.2,863.56,831.2,863.56z"/>
<path class="st0" d="M806.73,885.82c0,0,46.85-47.78,52.01-91.75c5.16-43.97-26.91-133.09-26.91-133.09s-53.46,65.94-62.67,103.31
	s39.49,127.75,39.49,127.75L806.73,885.82z"/>
<g>
	<path class="st1" d="M841.25,888c0,0,63.25-63.49,66.94-130.8c3.69-67.32-26.77-216.31-26.77-216.31s-61.79,98.42-75.64,163.44
		c-13.85,65.03-0.12,115.11,12.2,156.28s12.32,41.17,12.32,41.17L841.25,888z"/>
	<path class="st2" d="M830.29,901.78c-2.6-8.83,15.51-46.13,24.51-138.84s11.35-141.92,13.75-165.11
		c2.4-23.19,9.67-65.73,9.67-65.73"/>
	<path class="st2" d="M839.25,831.09c0,0-5.44-27.64-11.75-42.21c-6.31-14.57-27.51-32.91-27.51-32.91"/>
	<path class="st2" d="M845.31,787.63c0,0-9.45-21.36-18.68-33.72c-9.23-12.36-25.33-21.18-25.33-21.18"/>
	<path class="st2" d="M805.78,704.32c0,0,7.25,4.5,20.09,18.61c12.84,14.11,23.47,35.39,23.47,35.39s22.68-20.61,34.11-15.4
		c11.43,5.2,25.26,11.24,25.26,11.24"/>
	<path class="st2" d="M853.77,720.98c0,0-6.41-18.57-17.96-28.77c-11.55-10.2-26.09-4.73-24.77-7.55"/>
	<path class="st2" d="M859.33,681.55c0,0-3.22-9.78-12.34-18.15c-9.13-8.37-22.76-6.41-22.76-6.41"/>
	<path class="st2" d="M839.54,843c0,0,5.17-7.29,11.63-10.75c6.46-3.46,28.29,5.87,27.06,8.03"/>
	<path class="st2" d="M847.63,817.72c0,0,17.14-12.44,23.72-10.9s21.01,7.76,21.01,7.76"/>
	<path class="st2" d="M853.32,777.06c0,0,31.89-11.24,38.05-2.67c6.16,8.58,11.36,13.31,11.36,13.31"/>
</g>
</svg>
