<?xml version="1.0" encoding="utf-8"?>
<!-- Generator: Adobe Illustrator 23.0.1, SVG Export Plug-In . SVG Version: 6.00 Build 0)  -->
<svg version="1.1" id="Layer_1" xmlns="http://www.w3.org/2000/svg" xmlns:xlink="http://www.w3.org/1999/xlink" x="0px" y="0px"
	 viewBox="0 0 1000 1000" style="enable-background:new 0 0 1000 1000;" xml:space="preserve">
<style type="text/css">
	.st0{fill:#728BC6;stroke:#B49FF5;stroke-miterlimit:10;}
	.st1{fill:#FFC03C;}
	.st2{fill:#7684C1;}
	.st3{fill:#C3C6DA;}
	.st4{fill:#FBE966;}
	.st5{fill:#FBE996;}
	.st6{fill:#9295A3;}
	.st7{fill:#FFFFFF;}
	.st8{fill:#FFFFFF;stroke:#FFC03C;stroke-miterlimit:10;}
	.st9{fill:#DEC585;}
	.st10{fill:#8998A0;}
	.st11{fill:#C8D1EA;}
	.st12{fill:#A79464;}
	.st13{fill:#CCBF8B;}
	.st14{fill:#DEB085;}
	.st15{fill:#B8C3E3;}
	.st16{fill:#C3D5DA;}
	.st17{fill:#FFC03C;stroke:#FFFFFF;stroke-miterlimit:10;}
	.st18{opacity:0.68;fill:#C3C6DA;}
	.st19{fill:#7883AE;}
	.st20{fill:none;}
</style>
<path class="st0" d="M516.78,394.19c0.62-0.88,125.39-5.72,143.33,0c21.64,6.9,61.3,18.98,22.54,73.33S533.01,594.33,526.7,633.15
	c-6.31,38.82-29.75,146.65-75.72,174.26s-232.58,68.15-278.55-31.92s-36.06-108.7-9.92-167.36
	c26.14-58.66,154.31-100.34,184.43-107.97c30.12-7.63,104.94-36.96,139.19-61.11s35.16-44.86,35.16-44.86l6.31-2.59"/>
<g>
	<path class="st1" d="M566.83,368.63h-44.99c-6.69,0-12.11-5.42-12.11-12.11v-128.4c0-6.69,5.42-12.11,12.11-12.11h44.99
		c6.69,0,12.11,5.42,12.11,12.11v128.4C578.94,363.2,573.52,368.63,566.83,368.63z"/>
	<path class="st1" d="M809.78,245.87h-32.81c-1.99,0-3.63-1.63-3.63-3.63v-1.42c0-1.99,1.63-3.63,3.63-3.63h32.81
		c1.99,0,3.63,1.63,3.63,3.63v1.42C813.41,244.24,811.78,245.87,809.78,245.87z"/>
	<path class="st2" d="M760.24,359.44H593.66c-8.31,0-15.05-6.74-15.05-15.05V231.76c0-8.31,6.74-15.05,15.05-15.05h166.58
		c8.31,0,15.05,6.74,15.05,15.05v112.63C775.28,352.7,768.55,359.44,760.24,359.44z"/>
	<path class="st3" d="M578.61,346.47h196.67c-0.16,7.19-5.09,12.97-11.16,12.97H589.77C583.7,359.43,578.77,353.66,578.61,346.47z"
		/>
	<path class="st3" d="M775.29,227.44H578.61c0.02-5.93,5.02-10.72,11.17-10.72h174.34C770.27,216.71,775.26,221.51,775.29,227.44z"
		/>
	<rect x="775" y="245.87" class="st4" width="29.32" height="113.9"/>
	<path class="st5" d="M863.36,359.96c0,0,8.28-22.1,10.34-35.51c2.06-13.41-7.02-17.68-16.11-19.81
		c-9.09-2.13-68.97-5.79-71.45-4.88c-2.48,0.91,0,60.2,0,60.2H863.36z"/>
	<g>
		<path class="st6" d="M854.4,368.64H582.24c-1.99,0-3.63-1.63-3.63-3.63v-1.42c0-1.99,1.63-3.63,3.63-3.63H854.4
			c1.99,0,3.63,1.63,3.63,3.63v1.42C858.03,367.01,856.4,368.64,854.4,368.64z"/>
	</g>
	<g>
		<path class="st7" d="M831.01,362.18c0,11.46-8.56,20.75-19.12,20.75c-10.57,0-19.13-9.29-19.13-20.75s8.56-20.75,19.13-20.75
			C822.44,341.43,831.01,350.72,831.01,362.18z"/>
	</g>
	<path class="st1" d="M851.54,304.14l-5.48-1c0,0-4.57-45.58-7.87-50.48c-2.62-3.89-36.42-4.45-50.29-4.53v112.02h-6.91V243.8h6.91
		v0.54c13.8,0.83,47.34,2.9,50.29,3.8c3.72,1.13,4.54,3.39,7.85,25.27C849.34,295.28,851.54,304.14,851.54,304.14z"/>
	<polygon class="st8" points="667.77,280.76 692.74,260.61 715.57,279.96 689.06,301.74 	"/>
	<polygon class="st8" points="688.47,301.86 688.78,326.43 715.67,310.21 715.3,280.23 	"/>
	<path class="st1" d="M688.3,301.46l-20.74-21.24c0,0,1.15,22.49,0,27.9l20.74,18.32V301.46z"/>
	<polygon class="st1" points="677.93,272.56 700.97,291.78 700.97,305.63 703.66,301.88 707.12,303.55 707.09,286.92 684.2,267.51 	
		"/>
	<g>
		<polygon class="st1" points="661.81,292.48 661.81,296.14 635.92,280.74 639.33,275.91 		"/>
		<polygon class="st1" points="661.81,285.48 661.81,288.17 645.97,275.67 648.5,272.66 		"/>
		<polygon class="st1" points="661.81,300.46 661.81,302.74 643.75,293.37 645.74,289.91 		"/>
	</g>
	<rect x="511.05" y="225.52" class="st7" width="67.24" height="130.22"/>
	<g>
		<polygon class="st9" points="521.59,357.55 491.27,394.72 558.51,394.72 578.94,357.43 		"/>
	</g>
	<g>
		<path class="st9" d="M811.88,324.23c-19.34,0-35.02,17-35.02,37.97h7.61c0-16.41,12.26-29.72,27.4-29.72
			c15.13,0,27.4,13.31,27.4,29.72h7.61C846.9,341.23,831.22,324.23,811.88,324.23z"/>
	</g>
	<path class="st2" d="M811.88,332.48c-15.14,0-27.4,13.31-27.4,29.72c0,16.41,12.26,29.72,27.4,29.72c15.13,0,27.4-13.31,27.4-29.72
		C839.29,345.79,827.02,332.48,811.88,332.48z M811.88,381.35c-9.75,0-17.65-8.57-17.65-19.14c0-10.58,7.9-19.14,17.65-19.14
		c9.74,0,17.64,8.57,17.64,19.14C829.53,372.78,821.63,381.35,811.88,381.35z"/>
	<g>
		<path class="st7" d="M622.04,382.42c-10.27,0-18.63-9.08-18.63-20.25s8.36-20.25,18.63-20.25c10.27,0,18.62,9.08,18.62,20.25
			S632.31,382.42,622.04,382.42z"/>
		<path d="M622.04,342.42c9.99,0,18.12,8.86,18.12,19.75s-8.13,19.75-18.12,19.75c-10,0-18.13-8.86-18.13-19.75
			S612.04,342.42,622.04,342.42 M622.04,341.42c-10.57,0-19.13,9.29-19.13,20.75s8.56,20.75,19.13,20.75
			c10.56,0,19.12-9.29,19.12-20.75S632.6,341.42,622.04,341.42L622.04,341.42z"/>
	</g>
	<g>
		<g>
			<path class="st9" d="M622.04,324.22c-19.34,0-35.02,17-35.02,37.97h7.61c0-16.41,12.26-29.72,27.4-29.72
				c15.13,0,27.4,13.31,27.4,29.72h7.61C657.06,341.22,641.37,324.22,622.04,324.22z"/>
		</g>
	</g>
	<path class="st2" d="M622.04,332.47c-15.14,0-27.4,13.31-27.4,29.72c0,16.41,12.26,29.72,27.4,29.72c15.13,0,27.4-13.31,27.4-29.72
		C649.44,345.78,637.17,332.47,622.04,332.47z M622.04,381.34c-9.75,0-17.65-8.57-17.65-19.14c0-10.58,7.9-19.14,17.65-19.14
		c9.74,0,17.64,8.57,17.64,19.14C639.68,372.77,631.78,381.34,622.04,381.34z"/>
</g>
<path class="st10" d="M540.97,385.96c-0.81,0.04,4.48,7.15-12.95,46.07c-17.43,38.91-38.85,64.64-51.25,91.29
	c-12.4,26.65-14.72,43.47-14.72,43.47l-17.92,0.82c0,0-11.02-109.83-6.98-125.4c4.03-15.57,4.03-15.57,4.03-15.57l-3.56,141.26
	c0,0-23.5,3.08-21.17,0.97c2.33-2.11,0.11-27.42-3.16-56.7c-3.26-29.27-19.04-78.04-19.01-92.08c0.03-14.04,5.62-31.02,5.62-31.02
	s141.81-4.49,140.88-6.46"/>
<path class="st11" d="M491.59,251.37c0,0,12.75,2.68,26.77,28.16c14.02,25.48,20.57,94.56,21.8,100.63s0.34,6.11,0.34,6.11
	s-69.22,25.62-103.09,15.34s-34.03-13.13-35.8-12.64c-1.77,0.49-10.52-35.43,1.31-65.36s31.82-50.84,37.78-56.83
	c5.97-5.99,16.93-11.12,16.93-11.12L491.59,251.37z"/>
<g>
	<polygon class="st12" points="420.33,389.59 371.65,414.91 371.65,331.58 414.92,314.43 	"/>
	<g>
		<polygon class="st9" points="371.65,331.58 304.04,322.6 304.04,400.21 371.65,414.91 		"/>
	</g>
	<polygon class="st9" points="304.04,322.6 355.42,307.07 414.92,314.43 371.65,331.58 	"/>
</g>
<path class="st10" d="M501.78,183.97l-4.25,4.44c0,0-8.67,5.91-8.41,10.56s7.25,9,7.25,9s2.34,1.59,6.33-7.5
	S501.78,183.97,501.78,183.97z"/>
<path class="st10" d="M501.78,183.97c0,0-13.87-6.71-25.32-2.11s-19.18,11.08-19.87,14.79c-0.69,3.71,0.2,3.66,0.2,3.66
	s-3.97,1.41,9.43-0.43s30.02-10.35,30.02-10.35L501.78,183.97z"/>
<path class="st13" d="M506.01,219.37l0.12-0.01C506.13,219.37,506.07,219.29,506.01,219.37z"/>
<path class="st14" d="M455.96,200.27c0,0-3.79,10.08-2.08,21.25c1.71,11.17,11.74,20.35,10.75,22c-1,1.65,21.44-0.98,21.44-0.98
	s3.28-14.34,4.7-18.16c1.42-3.81,2.27-8.14,2.27-8.14s5.78-3.75,5.93-5.9c0.15-2.15-4.29-3.82-4.29-3.82l1.46-17.74
	c0,0-16.73-2.45-25.78,1.18C461.3,193.6,455.96,200.27,455.96,200.27z"/>
<path class="st15" d="M507.26,271.73c0,0,14.16,4.1,28.29,20.97c14.12,16.87,18.45,47.71-14.68,65.81
	c-33.13,18.1-76.81-1.31-76.81-1.31l-4.79,1.86l-7.4-7.92l5.79-3.12c0,0,9.8-8.14,18.42-11.72c8.62-3.58,28.86-8.11,35.78-8.86
	c6.91-0.75,13.94-3.7,17.59-13.77c3.65-10.07-12.82-17.81-14.46-22.47c-1.63-4.66-4.86-8.7-0.52-13.95S507.26,271.73,507.26,271.73z
	"/>
<polygon class="st15" points="462.55,263.31 457.64,255.78 451.9,258.67 456.52,268.08 "/>
<path class="st14" d="M461.65,566.73c0,0-2.42,11.59-3.23,15.45c-0.81,3.86,0,3.86,0,3.86h-12.1l-2.42-19.32H461.65z"/>
<polygon class="st14" points="436.23,567.79 436.23,586.33 421.71,586.33 418.25,569.33 "/>
<path class="st14" d="M457.62,255.88l4.84,7.32l5.32-2.63l17.54-8.68l2.92-2.62l0.51-0.45c0,0-1.47-2.09-2.1-5.3
	c-0.39-2-0.35-2.55-0.27-2.69l-21.87,1c0,0,0.03,0.2,0.06,0.53h0.01c0,0,1.11,4.75-0.5,6.94c-1.43,1.95-5.4,5.62-6.28,6.42
	l0.12,0.06L457.62,255.88z"/>
<path class="st16" d="M421.02,584.4c0,0-14.8,16.28-15.1,23.75c-0.3,7.47,8.45,9.66,19.42,0.72c10.97-8.94,11.57-23.88,11.57-23.88
	L421.02,584.4z"/>
<path class="st16" d="M456.21,584.42c0,0,17.98,17.22,13.98,24.87c-4,7.65-13.98,7.65-19.98,0c-5.99-7.65-4-24.87-4-24.87H456.21z"
	/>
<path class="st14" d="M438.17,347.72c0,0-6.84,2.56-14.19,4.54c-7.34,1.98-15.7,2.78-18.29,4.44c-2.59,1.66-6.12,5.74-3.81,6.09
	s6.48-4.15,8.78-3.81c2.3,0.34,2.3,0.34,2.3,0.34s-3.89,2.49-5.47,5.33c-1.58,2.84-7.63,12.18-9.72,14.43
	c-2.09,2.25-0.21,5.6,2.74,5.53c2.95-0.07,15.34-4.37,20.38-6.69c5.04-2.32,10.08-12.84,14.11-16.33c4.03-3.5,10.22-5.64,10.22-5.64
	L438.17,347.72z"/>
<path class="st14" d="M380.12,355.65c0,0,2.78-4.22,5.13-8.92s3.84-10.36,5.46-11.81c1.62-1.45,5.3-3.01,5.36-1.33
	c0.05,1.69-4.04,3.62-3.99,5.3c0.05,1.69,0.05,1.69,0.05,1.69s2.43-2.17,4.9-2.65c2.48-0.48,10.71-2.65,12.76-3.62
	s4.6,1.08,4.24,3.13c-0.35,2.05-5.1,9.76-7.5,12.78c-2.4,3.01-11.49,4.22-14.75,6.27s-5.63,5.91-5.63,5.91L380.12,355.65z"/>
<path class="st5" d="M204.56,437.68c0,0,44.42,196.23,48.32,231.77c3.9,35.54,9.35,67.21,9.35,67.21h16.37V512.62l13.25,224.05h22.6
	c0,0,10.91-215.55,16.37-242.59c5.46-27.04,3.97-51.33,3.97-51.33L204.56,437.68z"/>
<path class="st1" d="M254.98,286.72c0,0,9.92-4.26,22.98,3.07s50.51,74.21,54.03,103.32c3.52,29.11,3.43,62.91-1.14,65.02
	c-4.57,2.11-72.2,24.04-92.69,11.14c-20.49-12.91-35.51-26.01-35.51-26.01s-0.17-37.68,5.76-78.19
	c5.93-40.5,20.86-63.78,24.51-67.81C236.57,293.23,254.98,286.72,254.98,286.72z"/>
<path class="st17" d="M286.46,342.66c0,0,15.49,58.02,30.97,74.87s40.4,7.49,50.5,0c10.1-7.49,26.26-62.7,26.26-62.7l-10.1-4.68
	c0,0-14.81,32.76-29.62,29.01c-14.81-3.74-24.51-7.62-39.18-25.33c-14.68-17.72-28.82-37.37-28.82-24.27
	S286.46,342.66,286.46,342.66z"/>
<path class="st12" d="M290.81,178.37c0,0-28.06-7.46-45.73,3.73c-17.67,11.19-36.38,40.11-42.61,57.83s-6.24,30.78-17.67,37.31
	s-32.22,29.85-28.06,41.98c4.16,12.13,12.47,29.85,36.38,30.78c23.9,0.93,28.06-9.33,41.57-6.53s33.79,5.01,45.48-8.69
	c11.68-13.7,9.61-29.56,5.45-50.08c-4.16-20.52,0-28.92,5.2-35.45c5.2-6.53,28.06-27.98,21.83-42.91S290.81,178.37,290.81,178.37z"
	/>
<path class="st7" d="M525.13,668.68c0,0-63.52-28.47-60.02-55.72c3.5-27.26-1.17-49.06,16.32-51.48
	c17.48-2.42,21.56-26.65,13.4-41.19c-8.16-14.54-23.89-46.64-3.5-52.69c20.4-6.06,30.3-13.32,28.55-32.71s29.14-41.19,41.37-18.78
	c12.24,22.41,13.4,55.12,9.32,66.62c-4.08,11.51,23.31-0.61,30.89,16.35c7.58,16.96-8.16,44.21-11.07,56.93s29.14-3.63,30.89,10.3
	s0.58,38.16-26.22,65.41c-26.81,27.26-33.22,18.78-41.96,26.04C544.36,665.04,525.13,668.68,525.13,668.68z"/>
<path class="st3" d="M527.01,744.45c0,0-71.21-26.2-67.29-51.28c3.92-25.08-1.31-45.15,18.29-47.38
	c19.6-2.23,24.17-24.52,15.03-37.9c-9.15-13.38-26.79-42.92-3.92-48.49c22.87-5.57,33.97-12.26,32.01-30.1
	c-1.96-17.84,32.67-37.9,46.38-17.28c13.72,20.62,15.03,50.72,10.45,61.31c-4.57,10.59,26.13-0.56,34.63,15.05
	c8.49,15.61-9.15,40.69-12.41,52.39c-3.27,11.71,32.67-3.34,34.63,9.48c1.96,12.82,0.65,35.12-29.4,60.2
	c-30.05,25.08-37.24,17.28-47.04,23.97C548.57,741.1,527.01,744.45,527.01,744.45z"/>
<path class="st18" d="M596.17,721.54c0,0-71.33-26.99-67.41-52.83s-1.31-46.52,18.32-48.81c19.63-2.3,24.21-25.27,15.05-39.05
	c-9.16-13.78-26.83-44.22-3.93-49.96c22.91-5.74,34.03-12.63,32.07-31.01c-1.96-18.38,32.72-39.05,46.47-17.8
	c13.74,21.25,15.05,52.26,10.47,63.17c-4.58,10.91,26.18-0.57,34.69,15.51c8.51,16.08-9.16,41.92-12.43,53.98s32.72-3.45,34.69,9.76
	s0.65,36.18-29.45,62.02c-30.1,25.84-37.3,17.8-47.12,24.69S596.17,721.54,596.17,721.54z"/>
<path class="st19" d="M591.16,692.71c0,0-76.92-33.7-72.69-65.97c4.23-32.27-1.41-58.08,19.76-60.95
	c21.17-2.87,26.11-31.55,16.23-48.76c-9.88-17.21-28.93-55.21-4.23-62.38c24.7-7.17,36.7-15.77,34.58-38.72
	c-2.12-22.95,35.29-48.76,50.11-22.23s16.23,65.25,11.29,78.87c-4.94,13.62,28.23-0.72,37.4,19.36c9.17,20.08-9.88,52.34-13.41,67.4
	s35.29-4.3,37.4,12.19c2.12,16.49,0.71,45.17-31.76,77.44s-40.23,22.23-50.81,30.83C614.45,688.41,591.16,692.71,591.16,692.71z"/>
<path class="st3" d="M604.89,752c0,0-75.4-31.47-71.25-61.6s-1.38-54.23,19.37-56.91c20.75-2.68,25.6-29.46,15.91-45.53
	c-9.68-16.07-28.36-51.55-4.15-58.25c24.21-6.7,35.97-14.73,33.9-36.15c-2.08-21.42,34.59-45.53,49.12-20.76
	c14.53,24.77,15.91,60.93,11.07,73.65s27.67-0.67,36.66,18.08c8.99,18.75-9.68,48.87-13.14,62.93
	c-3.46,14.06,34.59-4.02,36.66,11.38s0.69,42.18-31.13,72.31c-31.82,30.13-39.43,20.76-49.81,28.79S604.89,752,604.89,752z"/>
<path class="st18" d="M678.12,724.49c0,0-75.53-32.42-71.38-63.46c4.16-31.04-1.39-55.87,19.4-58.63s25.64-30.35,15.94-46.91
	s-28.41-53.11-4.16-60.01s36.03-15.18,33.96-37.25s34.65-46.91,49.2-21.38s15.94,62.77,11.09,75.88
	c-4.85,13.11,27.72-0.69,36.73,18.62c9.01,19.31-9.7,50.35-13.17,64.84c-3.46,14.49,34.65-4.14,36.73,11.73
	c2.08,15.87,0.69,43.46-31.18,74.5c-31.88,31.04-39.5,21.38-49.89,29.66S678.12,724.49,678.12,724.49z"/>
</svg>
